<svg xmlns="http://www.w3.org/2000/svg" version="1.1" xmlns:xlink="http://www.w3.org/1999/xlink" xmlns:svgjs="http://svgjs.dev/svgjs" viewBox="0 0 5.789008204764988 2.105440852613955"><g transform="matrix(1,0,0,1,1.9116404477261453,0.30999033190323755)"><g><path d=" M 0.13575 0.31499999999999995 Q 0.114 0.29399999999999993 0.114 0.2549999999999999 Q 0.114 0.21749999999999992 0.13575 0.19724999999999993 Q 0.1575 0.17699999999999994 0.1965 0.17699999999999994 Q 0.234 0.17699999999999994 0.255 0.19724999999999993 Q 0.276 0.21749999999999992 0.276 0.2549999999999999 Q 0.276 0.29399999999999993 0.25575000000000003 0.31499999999999995 Q 0.23550000000000001 0.33599999999999985 0.1965 0.33599999999999985 Q 0.1575 0.33599999999999985 0.13575 0.31499999999999995 M 0.2715 0.5429999999999999 Q 0.2685 0.6059999999999999 0.2685 0.6914999999999999 L 0.2685 1.1595 Q 0.2685 1.2614999999999998 0.24525 1.3267499999999999 Q 0.222 1.392 0.16875 1.4355 Q 0.1155 1.4789999999999999 0.0195 1.5105 Q 0.0165 1.512 0.012750000000000001 1.50375 Q 0.009000000000000001 1.4954999999999998 0.0135 1.494 Q 0.0855 1.4625 0.1155 1.3935 Q 0.1455 1.3245 0.1455 1.194 L 0.1455 0.6929999999999998 Q 0.1455 0.6404999999999998 0.13575 0.6179999999999999 Q 0.126 0.5954999999999999 0.10200000000000001 0.5954999999999999 Q 0.078 0.5954999999999999 0.042 0.6134999999999999 L 0.0405 0.6134999999999999 Q 0.0345 0.6134999999999999 0.03075 0.6059999999999999 Q 0.027 0.5984999999999999 0.0315 0.5954999999999999 L 0.2475 0.4949999999999999 L 0.252 0.49349999999999994 Q 0.258 0.49349999999999994 0.26475 0.5002499999999999 Q 0.2715 0.5069999999999999 0.2715 0.5114999999999998 L 0.2715 0.5429999999999999 M 1.1309794921875 0.9929999999999999 Q 1.1354794921875 0.9929999999999999 1.1384794921874999 1.0005 Q 1.1414794921875 1.008 1.1369794921875 1.011 L 0.9404794921875 1.1055 L 0.9344794921875 1.107 Q 0.9194794921875 1.107 0.9074794921875 1.0732499999999998 Q 0.8954794921875 1.0394999999999999 0.8939794921875001 0.9824999999999999 Q 0.7889794921875 1.1039999999999999 0.6719794921875 1.1039999999999999 Q 0.5909794921875 1.1039999999999999 0.5459794921875 1.05375 Q 0.5009794921875 1.0034999999999998 0.5009794921875 0.9164999999999999 L 0.5009794921875 0.6929999999999998 Q 0.5009794921875 0.591 0.4544794921875 0.591 Q 0.4394794921875 0.591 0.4124794921875 0.603 L 0.4109794921875 0.603 Q 0.4049794921875 0.603 0.4019794921875 0.5954999999999999 Q 0.3989794921875 0.5879999999999999 0.4034794921875 0.5849999999999999 L 0.5939794921875 0.49649999999999994 L 0.5999794921875 0.4949999999999999 Q 0.6059794921875 0.4949999999999999 0.6134794921875 0.5009999999999999 Q 0.6209794921875 0.5069999999999999 0.6209794921875 0.5114999999999998 L 0.6209794921875 0.8519999999999999 Q 0.6209794921875 1.0185 0.7469794921874999 1.0185 Q 0.7844794921875 1.0185 0.8234794921874999 1.0005 Q 0.8624794921875001 0.9824999999999999 0.8939794921875001 0.9509999999999998 L 0.8939794921875001 0.6929999999999998 Q 0.8939794921875001 0.6404999999999998 0.8827294921875 0.6157499999999999 Q 0.8714794921875 0.591 0.8474794921875 0.591 Q 0.8339794921875 0.591 0.8054794921874999 0.603 L 0.8039794921875001 0.603 Q 0.7979794921875001 0.603 0.7949794921875 0.5947499999999999 Q 0.7919794921875001 0.5864999999999999 0.7979794921875001 0.5849999999999999 L 0.9869794921875 0.49649999999999994 Q 0.9899794921875 0.4949999999999999 0.9944794921875 0.4949999999999999 Q 1.0004794921875 0.4949999999999999 1.0079794921875 0.5009999999999999 Q 1.0154794921875 0.5069999999999999 1.0154794921875 0.5114999999999998 L 1.0154794921875 0.9179999999999999 Q 1.0154794921875 0.9704999999999999 1.0259794921875 0.9914999999999999 Q 1.0364794921875 1.0125 1.0604794921875 1.0125 Q 1.0784794921875 1.0125 1.1279794921875 0.9944999999999999 L 1.1309794921875 0.9929999999999999 M 1.7331943359375002 0.5204999999999999 Q 1.7894443359375 0.5519999999999999 1.8231943359375 0.6149999999999999 Q 1.8569443359375 0.6779999999999999 1.8569443359375 0.7679999999999999 Q 1.8569443359375 0.8759999999999999 1.8111943359375 0.9524999999999999 Q 1.7654443359375 1.029 1.6904443359374999 1.0679999999999998 Q 1.6154443359375001 1.107 1.5314443359375 1.107 Q 1.4144443359375 1.107 1.3214443359375 1.0379999999999998 L 1.1939443359375 1.0964999999999998 L 1.1909443359375 1.0964999999999998 Q 1.1849443359375 1.0964999999999998 1.1834443359375 1.0912499999999998 Q 1.1819443359375 1.0859999999999999 1.1864443359375 1.083 Q 1.2269443359375 1.0574999999999999 1.2456943359375 1.02375 Q 1.2644443359375 0.9899999999999999 1.2644443359375 0.9329999999999999 L 1.2644443359375 0.1994999999999999 Q 1.2644443359375 0.1469999999999999 1.2539443359375 0.12374999999999992 Q 1.2434443359375 0.10049999999999992 1.2179443359375 0.10049999999999992 Q 1.1999443359375 0.10049999999999992 1.1594443359375 0.11849999999999994 L 1.1579443359375 0.11849999999999994 Q 1.1519443359375 0.11849999999999994 1.1489443359375 0.11099999999999988 Q 1.1459443359375 0.10349999999999993 1.1489443359375 0.10049999999999992 L 1.3574443359375 0.0014999999999998348 L 1.3649443359375 -2.220446049250313e-16 Q 1.3709443359375 -2.220446049250313e-16 1.3784443359375 0.005999999999999783 Q 1.3859443359374999 0.011999999999999789 1.3859443359374999 0.01649999999999996 L 1.3859443359374999 0.5999999999999999 Q 1.4354443359375 0.5489999999999999 1.4894443359375 0.5189999999999999 Q 1.5434443359375 0.4889999999999999 1.6109443359375 0.4889999999999999 Q 1.6769443359375 0.4889999999999999 1.7331943359375002 0.5204999999999999 M 1.6829443359375 1.011 Q 1.7219443359375 0.9449999999999998 1.7219443359375 0.8234999999999999 Q 1.7219443359375 0.6914999999999999 1.6746943359375002 0.6247499999999999 Q 1.6274443359375 0.5579999999999999 1.5479443359375 0.5579999999999999 Q 1.4714443359375 0.5579999999999999 1.3859443359374999 0.6269999999999999 L 1.3859443359374999 0.8564999999999999 Q 1.3859443359374999 0.9344999999999999 1.4151943359375 0.9839999999999999 Q 1.4444443359374999 1.0334999999999999 1.4871943359375 1.05525 Q 1.5299443359375 1.077 1.5704443359375 1.077 Q 1.6439443359375 1.077 1.6829443359375 1.011 M 2.629409912109375 0.9929999999999999 Q 2.6354099121093753 0.9929999999999999 2.639159912109375 0.9997499999999999 Q 2.642909912109375 1.0065 2.638409912109375 1.0094999999999998 L 2.441909912109375 1.1039999999999999 Q 2.4389099121093754 1.1055 2.434409912109375 1.1055 Q 2.420909912109375 1.1055 2.409659912109375 1.0755 Q 2.398409912109375 1.0454999999999999 2.395409912109375 0.9974999999999999 Q 2.3444099121093753 1.047 2.291909912109375 1.07625 Q 2.239409912109375 1.1055 2.176409912109375 1.1055 Q 2.116409912109375 1.1055 2.065409912109375 1.0747499999999999 Q 2.0144099121093753 1.0439999999999998 1.984409912109375 0.9847499999999999 Q 1.9544099121093752 0.9254999999999999 1.9544099121093752 0.843 Q 1.9544099121093752 0.7364999999999999 2.004659912109375 0.6562499999999999 Q 2.054909912109375 0.5759999999999998 2.135159912109375 0.5332499999999999 Q 2.215409912109375 0.49049999999999994 2.302409912109375 0.49049999999999994 Q 2.386409912109375 0.49049999999999994 2.4479099121093753 0.5309999999999999 Q 2.479409912109375 0.5159999999999999 2.500409912109375 0.4919999999999999 Q 2.501909912109375 0.49049999999999994 2.504909912109375 0.49049999999999994 Q 2.5079099121093753 0.49049999999999994 2.511659912109375 0.4927499999999999 Q 2.515409912109375 0.4949999999999999 2.515409912109375 0.4979999999999999 L 2.515409912109375 0.9254999999999999 Q 2.515409912109375 0.9719999999999999 2.525909912109375 0.9914999999999999 Q 2.536409912109375 1.011 2.560409912109375 1.011 Q 2.585909912109375 1.011 2.627909912109375 0.9929999999999999 L 2.629409912109375 0.9929999999999999 M 2.393909912109375 0.9719999999999999 L 2.393909912109375 0.966 L 2.393909912109375 0.6524999999999999 Q 2.393909912109375 0.5954999999999999 2.356409912109375 0.5579999999999999 Q 2.3189099121093752 0.5204999999999999 2.263409912109375 0.5204999999999999 Q 2.185409912109375 0.5204999999999999 2.138159912109375 0.597 Q 2.090909912109375 0.6734999999999999 2.090909912109375 0.7949999999999999 Q 2.090909912109375 0.9075 2.1321599121093753 0.9719999999999999 Q 2.173409912109375 1.0365 2.245409912109375 1.0365 Q 2.311409912109375 1.0365 2.393909912109375 0.9719999999999999 M 2.780145263671875 0.31499999999999995 Q 2.758395263671875 0.29399999999999993 2.758395263671875 0.2549999999999999 Q 2.758395263671875 0.21749999999999992 2.780145263671875 0.19724999999999993 Q 2.801895263671875 0.17699999999999994 2.840895263671875 0.17699999999999994 Q 2.878395263671875 0.17699999999999994 2.899395263671875 0.19724999999999993 Q 2.920395263671875 0.21749999999999992 2.920395263671875 0.2549999999999999 Q 2.920395263671875 0.29399999999999993 2.9001452636718748 0.31499999999999995 Q 2.879895263671875 0.33599999999999985 2.840895263671875 0.33599999999999985 Q 2.801895263671875 0.33599999999999985 2.780145263671875 0.31499999999999995 M 2.698395263671875 1.0785 Q 2.698395263671875 1.0695 2.702895263671875 1.0695 Q 2.753895263671875 1.0695 2.770395263671875 1.0485 Q 2.786895263671875 1.0274999999999999 2.786895263671875 0.966 L 2.786895263671875 0.6929999999999998 Q 2.786895263671875 0.6419999999999999 2.776395263671875 0.6187499999999999 Q 2.765895263671875 0.5954999999999999 2.740395263671875 0.5954999999999999 Q 2.717895263671875 0.5954999999999999 2.681895263671875 0.6134999999999999 L 2.680395263671875 0.6134999999999999 Q 2.674395263671875 0.6134999999999999 2.671395263671875 0.6059999999999999 Q 2.668395263671875 0.5984999999999999 2.672895263671875 0.5954999999999999 L 2.888895263671875 0.4949999999999999 L 2.893395263671875 0.49349999999999994 Q 2.899395263671875 0.49349999999999994 2.906145263671875 0.5002499999999999 Q 2.9128952636718752 0.5069999999999999 2.9128952636718752 0.5114999999999998 L 2.9128952636718752 0.5429999999999999 Q 2.909895263671875 0.6059999999999999 2.909895263671875 0.6914999999999999 L 2.909895263671875 0.966 Q 2.909895263671875 1.0274999999999999 2.927145263671875 1.0485 Q 2.944395263671875 1.0695 2.995395263671875 1.0695 Q 2.999895263671875 1.0695 2.999895263671875 1.0785 Q 2.999895263671875 1.0875 2.995395263671875 1.0875 Q 2.957895263671875 1.0875 2.935395263671875 1.0859999999999999 L 2.848395263671875 1.0845 L 2.761395263671875 1.0859999999999999 Q 2.740395263671875 1.0875 2.702895263671875 1.0875 Q 2.698395263671875 1.0875 2.698395263671875 1.0785 M 3.535382080078125 0.5159999999999999 Q 3.566882080078125 0.5384999999999999 3.566882080078125 0.57 Q 3.566882080078125 0.5984999999999999 3.549632080078125 0.6164999999999998 Q 3.5323820800781247 0.6344999999999998 3.502382080078125 0.6344999999999998 Q 3.482882080078125 0.6344999999999998 3.470132080078125 0.62625 Q 3.457382080078125 0.6179999999999999 3.443882080078125 0.603 Q 3.430382080078125 0.5894999999999999 3.419882080078125 0.5827499999999999 Q 3.409382080078125 0.5759999999999998 3.394382080078125 0.5759999999999998 Q 3.377882080078125 0.5759999999999998 3.359132080078125 0.5887499999999999 Q 3.340382080078125 0.6014999999999999 3.301382080078125 0.6419999999999999 L 3.301382080078125 0.966 Q 3.301382080078125 1.008 3.313382080078125 1.02975 Q 3.325382080078125 1.0514999999999999 3.353882080078125 1.0605 Q 3.382382080078125 1.0695 3.4378820800781247 1.0695 Q 3.443882080078125 1.0695 3.443882080078125 1.0785 Q 3.443882080078125 1.0875 3.4378820800781247 1.0875 Q 3.388382080078125 1.0875 3.3583820800781248 1.0859999999999999 L 3.2398820800781247 1.0845 L 3.152882080078125 1.0859999999999999 Q 3.131882080078125 1.0875 3.094382080078125 1.0875 Q 3.089882080078125 1.0875 3.089882080078125 1.0785 Q 3.089882080078125 1.0695 3.094382080078125 1.0695 Q 3.1453820800781247 1.0695 3.161882080078125 1.0485 Q 3.178382080078125 1.0274999999999999 3.178382080078125 0.966 L 3.178382080078125 0.6794999999999999 Q 3.178382080078125 0.6315 3.167132080078125 0.6089999999999999 Q 3.1558820800781247 0.5864999999999999 3.130382080078125 0.5864999999999999 Q 3.107882080078125 0.5864999999999999 3.055382080078125 0.6089999999999999 L 3.053882080078125 0.6089999999999999 Q 3.047882080078125 0.6089999999999999 3.044882080078125 0.6014999999999999 Q 3.0418820800781248 0.5939999999999999 3.046382080078125 0.5924999999999999 L 3.242882080078125 0.49649999999999994 Q 3.2518820800781247 0.49349999999999994 3.253382080078125 0.49349999999999994 Q 3.268382080078125 0.49349999999999994 3.283382080078125 0.5257499999999999 Q 3.2983820800781247 0.5579999999999999 3.301382080078125 0.6104999999999998 Q 3.359882080078125 0.5444999999999999 3.398882080078125 0.5189999999999999 Q 3.4378820800781247 0.49349999999999994 3.469382080078125 0.49349999999999994 Q 3.503882080078125 0.49349999999999994 3.535382080078125 0.5159999999999999" fill="#231f20" fill-rule="nonzero"></path></g><g></g><g clip-path="url(#SvgjsClipPath1001)"><g clip-path="url(#ac2bc9d60-f793-47ca-80f5-5b08944ad907711e7f53-dae1-4b3c-8e4b-1c6e869b399e)"><path d=" M -0.40887300335431687 0.7693668931307541 L -1.6192999580715233 0.7693668931307541 L -1.6192999580715233 0.03558817787728658 C -1.6192905939450832 0.006180141035659996 -1.5954530091976522 -0.01765744371176746 -1.5660449723560295 -0.01766680783820291 L -0.46212798906980646 -0.01766680783820291 C -0.43271995222818394 -0.01765744371176528 -0.4088823674807547 0.006180141035664138 -0.40887300335431687 0.03558817787728669 Z" fill="#5a5758" transform="matrix(1,0,0,1,0,0)" fill-rule="nonzero"></path></g><g clip-path="url(#ac2bc9d60-f793-47ca-80f5-5b08944ad907711e7f53-dae1-4b3c-8e4b-1c6e869b399e)"><path d=" M -0.40887300335431687 0.7693668931307541 L -1.6192999580715233 0.7693668931307541 L -1.6192999580715233 0.03558817787728658 C -1.6192905939450832 0.006180141035659996 -1.5954530091976522 -0.01765744371176746 -1.5660449723560295 -0.01766680783820291 L -0.46212798906980646 -0.01766680783820291 C -0.43271995222818394 -0.01765744371176528 -0.4088823674807547 0.006180141035664138 -0.40887300335431687 0.03558817787728669 Z" fill="none" transform="matrix(1,0,0,1,0,0)" fill-rule="nonzero" stroke-dasharray="none" stroke-miterlimit="10" stroke-linejoin="miter" stroke-linecap="butt" stroke-width="0.017746006708633955" stroke="#231f20"></path></g><g clip-path="url(#ac2bc9d60-f793-47ca-80f5-5b08944ad907711e7f53-dae1-4b3c-8e4b-1c6e869b399e)"><path d=" M -1.619316923661111 0.7693668931307541 L -0.4088899689439045 0.7693668931307541 L -0.4088899689439045 0.8383998771627155 C -0.40888996850563264 0.8678117928322759 -0.4327330374027114 0.8916548624399332 -0.4621449538658331 0.891654862878205 L -1.5660619379456215 0.891654862878205 C -1.5801860383235387 0.891654862878205 -1.593731652321652 0.8860440858495154 -1.6037188994770368 0.8760568386941308 C -1.6137061466324214 0.8660695915387461 -1.619316923661111 0.8525239775406326 -1.619316923661111 0.8383998771627155 Z" fill="#ffffff" transform="matrix(1,0,0,1,0,0)" fill-rule="nonzero"></path></g><g clip-path="url(#ac2bc9d60-f793-47ca-80f5-5b08944ad907711e7f53-dae1-4b3c-8e4b-1c6e869b399e)"><path d=" M -1.619316923661111 0.7693668931307541 L -0.4088899689439045 0.7693668931307541 L -0.4088899689439045 0.8383998771627155 C -0.40888996850563264 0.8678117928322759 -0.4327330374027114 0.8916548624399332 -0.4621449538658331 0.891654862878205 L -1.5660619379456215 0.891654862878205 C -1.5801860383235387 0.891654862878205 -1.593731652321652 0.8860440858495154 -1.6037188994770368 0.8760568386941308 C -1.6137061466324214 0.8660695915387461 -1.619316923661111 0.8525239775406326 -1.619316923661111 0.8383998771627155 Z" fill="none" transform="matrix(1,0,0,1,0,0)" fill-rule="nonzero" stroke-dasharray="none" stroke-miterlimit="10" stroke-linejoin="miter" stroke-linecap="butt" stroke-width="0.017746006708633955" stroke="#231f20"></path></g><g clip-path="url(#SvgjsClipPath1000711e7f53-dae1-4b3c-8e4b-1c6e869b399e)"><path d=" M -1.0785416228328648 0.8305059277723738 L -0.9496370731462483 0.8305059277723738" fill="none" transform="matrix(1,0,0,1,0,0)" fill-rule="nonzero" stroke-dasharray="none" stroke-miterlimit="10" stroke-linejoin="miter" stroke-linecap="butt" stroke-width="0.017746006708633955" stroke="#231f20"></path></g><g clip-path="url(#SvgjsClipPath1000711e7f53-dae1-4b3c-8e4b-1c6e869b399e)"><path d=" M -1.557036244285016 0.7063397278128046 L -1.5191351171463083 0.7063397278128046 L -1.5191351171463083 0.08634922192339815 L -1.557036244285016 0.08634922192339815 Z" fill="#d3d2d2" transform="matrix(1,0,0,1,0,0)" fill-rule="nonzero" stroke-dasharray="none" stroke-miterlimit="10" stroke-linejoin="miter" stroke-linecap="butt" stroke-width="0.017746006708633955" stroke="#231f20"></path></g><g clip-path="url(#SvgjsClipPath1000711e7f53-dae1-4b3c-8e4b-1c6e869b399e)"><path d=" M -1.557036244285016 0.08453390383752456 L -0.4711536827304119 0.08453390383752456 L -0.4711536827304119 0.04663277669881684 L -1.557036244285016 0.04663277669881684 Z" fill="#d3d2d2" transform="matrix(1,0,0,1,0,0)" fill-rule="nonzero" stroke-dasharray="none" stroke-miterlimit="10" stroke-linejoin="miter" stroke-linecap="butt" stroke-width="0.017729041119046347" stroke="#231f20"></path></g><g clip-path="url(#SvgjsClipPath1000711e7f53-dae1-4b3c-8e4b-1c6e869b399e)"><path d=" M -1.5191433273246029 0.0929081108671531 L -1.5191433273246029 0.04815288553505333" fill="none" transform="matrix(1,0,0,1,0,0)" fill-rule="nonzero" stroke-dasharray="none" stroke-miterlimit="10" stroke-linejoin="miter" stroke-linecap="butt" stroke-width="0.017746006708633955" stroke="#231f20"></path></g><g clip-path="url(#SvgjsClipPath1000711e7f53-dae1-4b3c-8e4b-1c6e869b399e)"><path d=" M -1.5272446689691832 0.07644131760423727 L -1.5489436580517288 0.07644131760423727 L -1.5489436580517288 0.0547423285216915 L -1.5272446689691832 0.0547423285216915 Z" fill="#67c5f0" transform="matrix(1,0,0,1,0,0)" fill-rule="nonzero"></path></g><g clip-path="url(#SvgjsClipPath1000711e7f53-dae1-4b3c-8e4b-1c6e869b399e)"><path d=" M -0.4711536827304119 0.7063397278128046 L -1.5191351171463083 0.7063397278128046 L -1.5191351171463083 0.08634922192339815 L -0.4711536827304119 0.08634922192339815 Z" fill="#ffffff" transform="matrix(1,0,0,1,0,0)" fill-rule="nonzero" stroke-dasharray="none" stroke-miterlimit="10" stroke-linejoin="miter" stroke-linecap="butt" stroke-width="0.017746006708633955" stroke="#231f20"></path></g><g clip-path="url(#SvgjsClipPath1000711e7f53-dae1-4b3c-8e4b-1c6e869b399e)"><path d=" M -1.5191433273246029 0.17818586012361856 L -0.47116189290870647 0.17818586012361856" fill="none" transform="matrix(1,0,0,1,0,0)" fill-rule="nonzero" stroke-dasharray="none" stroke-miterlimit="10" stroke-linejoin="miter" stroke-linecap="butt" stroke-width="0.017746006708633955" stroke="#231f20"></path></g><g clip-path="url(#SvgjsClipPath1000711e7f53-dae1-4b3c-8e4b-1c6e869b399e)"><path d=" M -1.3300104617698278 0.08814925109068068 L -1.3300104617698278 0.178185635032096" fill="none" transform="matrix(1,0,0,1,0,0)" fill-rule="nonzero" stroke-dasharray="none" stroke-miterlimit="10" stroke-linejoin="miter" stroke-linecap="butt" stroke-width="0.017746006708633955" stroke="#231f20"></path></g><g clip-path="url(#SvgjsClipPath1000711e7f53-dae1-4b3c-8e4b-1c6e869b399e)"><path d=" M -1.295196984902372 0.1331675556071496 L -0.5056523766744496 0.1331675556071496" fill="none" transform="matrix(1,0,0,1,0,0)" fill-rule="nonzero" stroke-dasharray="none" stroke-miterlimit="10" stroke-linejoin="miter" stroke-linecap="butt" stroke-width="0.017746006708633955" stroke="#231f20"></path></g><g clip-path="url(#SvgjsClipPath1000711e7f53-dae1-4b3c-8e4b-1c6e869b399e)"><path d=" M -1.465150611078552 0.14389650180455146 L -1.4868496001610976 0.14389650180455146 L -1.4868496001610976 0.12219751272200571 L -1.465150611078552 0.12219751272200571 Z M -1.4147797755929552 0.14389650180455146 L -1.4364787646755008 0.14389650180455146 L -1.4364787646755008 0.12219751272200571 L -1.4147797755929552 0.12219751272200571 Z M -1.364425905696946 0.14389650180455146 L -1.3861248947794917 0.14389650180455146 L -1.3861248947794917 0.12219751272200571 L -1.364425905696946 0.12219751272200571 Z" fill="#231f20" transform="matrix(1,0,0,1,0,0)" fill-rule="nonzero"></path></g><g clip-path="url(#SvgjsClipPath1000711e7f53-dae1-4b3c-8e4b-1c6e869b399e)"><path d=" M -0.5297019323972336 0.43824948114948364 L -1.4605699018898988 0.43824948114948364 L -1.4605699018898988 0.2888335336514538 L -0.5297019323972336 0.2888335336514538 Z" fill="#f03f52" transform="matrix(1,0,0,1,0,0)" fill-rule="nonzero"></path></g><g clip-path="url(#SvgjsClipPath1000711e7f53-dae1-4b3c-8e4b-1c6e869b399e)"><path d=" M -1.2503568195219206 0.48693915551426814 L -0.5297094706092587 0.48693915551426814" fill="none" transform="matrix(1,0,0,1,0,0)" fill-rule="nonzero" stroke-dasharray="none" stroke-miterlimit="10" stroke-linejoin="miter" stroke-linecap="butt" stroke-width="0.017593316402345516" stroke="#231f20"></path></g><g clip-path="url(#SvgjsClipPath1000711e7f53-dae1-4b3c-8e4b-1c6e869b399e)"><path d=" M -1.2503568195219206 0.5348585831030253 L -0.5297094706092587 0.5348585831030253" fill="none" transform="matrix(1,0,0,1,0,0)" fill-rule="nonzero" stroke-dasharray="none" stroke-miterlimit="10" stroke-linejoin="miter" stroke-linecap="butt" stroke-width="0.017593316402345516" stroke="#231f20"></path></g><g clip-path="url(#SvgjsClipPath1000711e7f53-dae1-4b3c-8e4b-1c6e869b399e)"><path d=" M -1.2503568195219206 0.5827907349157834 L -0.5297094706092587 0.5827907349157834" fill="none" transform="matrix(1,0,0,1,0,0)" fill-rule="nonzero" stroke-dasharray="none" stroke-miterlimit="10" stroke-linejoin="miter" stroke-linecap="butt" stroke-width="0.017593316402345516" stroke="#231f20"></path></g><g clip-path="url(#SvgjsClipPath1000711e7f53-dae1-4b3c-8e4b-1c6e869b399e)"><path d=" M -1.2503568195219206 0.6307228867285416 L -0.5297094706092587 0.6307228867285416" fill="none" transform="matrix(1,0,0,1,0,0)" fill-rule="nonzero" stroke-dasharray="none" stroke-miterlimit="10" stroke-linejoin="miter" stroke-linecap="butt" stroke-width="0.017593316402345516" stroke="#231f20"></path></g><g clip-path="url(#SvgjsClipPath1000711e7f53-dae1-4b3c-8e4b-1c6e869b399e)"><path d=" M -1.2860279162126271 0.6414633132298063 L -1.4605868674794864 0.6414633132298063 L -1.4605868674794864 0.4779319951948898 L -1.2860279162126271 0.4779319951948898 Z" fill="#67c5f0" transform="matrix(1,0,0,1,0,0)" fill-rule="nonzero"></path></g><g clip-path="url(#SvgjsClipPath1000711e7f53-dae1-4b3c-8e4b-1c6e869b399e)"><path d=" M -1.1354752742122278 0.2516619268650131 L -1.1571742632947735 0.2516619268650131 L -1.1571742632947735 0.22996293778246735 L -1.1354752742122278 0.22996293778246735 Z M -1.0850874731370435 0.2516619268650131 L -1.1067864622195893 0.2516619268650131 L -1.1067864622195893 0.22996293778246735 L -1.0850874731370435 0.22996293778246735 Z M -1.0346827064722715 0.2516619268650131 L -1.0563816955548173 0.2516619268650131 L -1.0563816955548173 0.22996293778246735 L -1.0346827064722717 0.22996293778246735 Z M -0.9842949053970871 0.2516619268650131 L -1.0059938944796327 0.2516619268650131 L -1.0059938944796327 0.22996293778246735 L -0.9842949053970871 0.22996293778246735 Z M -0.9339071043219028 0.2516619268650131 L -0.9556060934044485 0.2516619268650131 L -0.9556060934044485 0.22996293778246735 L -0.9339071043219028 0.22996293778246735 Z M -0.8835193032467185 0.2516619268650131 L -0.9052182923292641 0.2516619268650131 L -0.9052182923292641 0.22996293778246735 L -0.8835193032467185 0.22996293778246735 Z M -0.8331145365819466 0.2516619268650131 L -0.8548135256644923 0.2516619268650131 L -0.8548135256644923 0.22996293778246735 L -0.8331145365819467 0.22996293778246735 Z" fill="#231f20" transform="matrix(1,0,0,1,0,0)" fill-rule="nonzero"></path></g><g clip-path="url(#SvgjsClipPath1000711e7f53-dae1-4b3c-8e4b-1c6e869b399e)"><path d=" M -1.2231873723801414 1.1046917713297504 L -0.8050195202248739 1.1046917713297504 L -0.8050195202248739 1.0534047940064228 L -1.2231873723801414 1.0534047940064228 Z" fill="#ffffff" transform="matrix(1,0,0,1,0,0)" fill-rule="nonzero"></path></g><g clip-path="url(#bc2bc9d60-f793-47ca-80f5-5b08944ad907711e7f53-dae1-4b3c-8e4b-1c6e869b399e)"><path d=" M -0.8050195202248739 1.1046917713297504 L -1.2231873723801414 1.1046917713297504 L -1.2231873723801414 1.0534047940064228 L -0.8050195202248739 1.0534047940064228 Z" fill="none" transform="matrix(1,0,0,1,0,0)" fill-rule="nonzero" stroke-dasharray="none" stroke-miterlimit="10" stroke-linejoin="miter" stroke-linecap="butt" stroke-width="0.017746006708633955" stroke="#231f20"></path></g><g clip-path="url(#SvgjsClipPath1000711e7f53-dae1-4b3c-8e4b-1c6e869b399e)"><path d=" M -0.9125795691843898 0.8916585483224446 L -0.8805485360429931 1.0534084794506626 L -1.1476208473310578 1.0534084794506626 L -1.115589814189661 0.8916585483224446 Z" fill="#ffffff" transform="matrix(1,0,0,1,0,0)" fill-rule="nonzero"></path></g><g clip-path="url(#SvgjsClipPath1000711e7f53-dae1-4b3c-8e4b-1c6e869b399e)"><path d=" M -0.9125795691843898 0.8916585483224446 L -0.8805485360429931 1.0534084794506626 L -1.1476208473310578 1.0534084794506626 L -1.115589814189661 0.8916585483224446 Z" fill="none" transform="matrix(1,0,0,1,0,0)" fill-rule="nonzero" stroke-dasharray="none" stroke-miterlimit="10" stroke-linejoin="miter" stroke-linecap="butt" stroke-width="0.017746006708633955" stroke="#231f20"></path></g><g clip-path="url(#cc2bc9d60-f793-47ca-80f5-5b08944ad907711e7f53-dae1-4b3c-8e4b-1c6e869b399e)"><path d=" M -1.6281899270154279 1.1051668078382033 L -0.3999999999999999 1.1051668078382033" fill="none" transform="matrix(1,0,0,1,0,0)" fill-rule="nonzero" stroke-dasharray="none" stroke-miterlimit="10" stroke-linejoin="miter" stroke-linecap="butt" stroke-width="0.017746006708633955" stroke="#231f20"></path></g></g></g><defs><clipPath id="SvgjsClipPath1001"><path d=" M -1.6281899270154279 -0.026539811192519913 h 1.228189927015428 v 1.1405796223850397 h -1.228189927015428 Z"></path></clipPath><clipPath id="ac2bc9d60-f793-47ca-80f5-5b08944ad907711e7f53-dae1-4b3c-8e4b-1c6e869b399e"><path d=" M -1.6281899270154279 1.1140398111925203 L -0.3999999999999999 1.1140398111925203 L -0.3999999999999999 -0.026539811192519913 L -1.6281899270154279 -0.026539811192519913 Z"></path></clipPath><clipPath id="SvgjsClipPath1000711e7f53-dae1-4b3c-8e4b-1c6e869b399e"><path d=" M -1.6281899270154279 -0.02653981119252002 L -0.3999999999999999 -0.02653981119252002 L -0.3999999999999999 1.1140398111925198 L -1.6281899270154279 1.1140398111925198 Z"></path></clipPath><clipPath id="bc2bc9d60-f793-47ca-80f5-5b08944ad907711e7f53-dae1-4b3c-8e4b-1c6e869b399e"><path d=" M -1.6281899270154279 1.1140398111925203 L -0.3999999999999999 1.1140398111925203 L -0.3999999999999999 -0.026539811192519913 L -1.6281899270154279 -0.026539811192519913 Z"></path></clipPath><clipPath id="cc2bc9d60-f793-47ca-80f5-5b08944ad907711e7f53-dae1-4b3c-8e4b-1c6e869b399e"><path d=" M -1.6281899270154279 1.1140398111925203 L -0.3999999999999999 1.1140398111925203 L -0.3999999999999999 -0.026539811192519913 L -1.6281899270154279 -0.026539811192519913 Z"></path></clipPath></defs></svg>